{"title":"Poseidon 2006 720p BRRip H.264 AAC-TheFalcon007","uid":5976429,"size":2843943939,"categoryP":"video","categoryS":"hd___movies","magnet":"?xt=urn:btih:9dca643bf84ac86d9c23a11694e59142745e59a2&amp;dn=Poseidon+2006+720p+BRRip+H.264+AAC-TheFalcon007&amp;tr=udp%3A%2F%2Ftracker.openbittorrent.com%3A80&amp;tr=udp%3A%2F%2Fopen.demonii.com%3A1337&amp;tr=udp%3A%2F%2Ftracker.coppersurfer.tk%3A6969&amp;tr=udp%3A%2F%2Fexodus.desync.com%3A6969","seeders":0,"leechers":1,"uploader":"SaM","files":29,"time":1290456968,"description":"*General Informations*\n\nTitle: Poseidon 2006 720p BRRip H.264 AAC-TheFalcon007 (Kingdom-Release).mp4\nYear: 2006\nRuntime: 1:38:14\nLanguage: English | Spanish\nRelease Date: 18/11/2010\n\n*File Informations*\n\nVideo: 3200 Kbps VBR H.264/AVC 23.376 FPS\nMaximum video bitrate: 14.7 Mbps\n\nAudio 01: AAC 48000Hz 448 kbPs 6 Channels VBR\nAudio 02: AAC 48000Hz 128 kbPs 2 Channels VBR\nOverall Bitrate: 3,776 Kbps VBR\nResolution: 1280 x 530\nAspect Ratio: 2.35 : 1\nSubtitles: English\nFile Size: 2.59 GB (2,782,240,888 bytes)\n\n*Movie Informations*\n\nGenre: Action | Adventure | Drama | Thriller\nIMDB Rating: 5.6/10 (36,381 votes)\nIMDB URL: http://www.imdb.com/title/tt0409182/\nCountry: USA\nRelease Date: 12 May 2006 (India)\nDirector: Wolfgang Petersen\n\nCast:\n\nJosh Lucas ... Dylan Johns\nKurt Russell ... Robert Ramsey\nJacinda Barrett ... Maggie James\nRichard Dreyfuss ...    Richard Nelson\nEmmy Rossum ... Jennifer Ramsey\nMÃƒÆ’Ã‚Â­a Maestro ... Elena Morales\nMike Vogel ... Christian\nKevin Dillon ... Lucky Larry\nFreddy RodrÃƒÆ’Ã‚Â­guez ... Marco Valentin\nJimmy Bennett ... Conor James\nStacy Ferguson ... Gloria\nAndre Braugher ... Captain Bradford\nKirk B.R. Woller ... Chief Officer Reynolds\nKelly McNair ... Emily\nGabriel Jarret ... 1st Officer Chapman\n\nAwards: Nominated for Oscar. Another 5 nominations\nPlot Keywords: Passenger | Cruise | New Year's Eve | Cruise Ship | Survival  \nMPAA: Rated PG-13 for intense prolonged sequences of disaster and peril.\nCompany: Warner Bros. Pictures\n\nPlot: It is New Year's Eve, and over 2,000 passengers &amp; crew are ringing in the New Year aboard the huge cruise ship 'Poseidon' on the open sea in the middle of the North Atlantic Ocean! A small group of survivors find themselves unlikely allies in a battle for their lives. Preferring to test the odds alone, career gambler Dylan Johns ignores captain's orders to wait below for possible rescue and sets out to find his own way to safety. What begins as a solo mission soon draws others, as Dylan is followed by a desperate father searching for his daughter and her fiancee--a young couple who hours before couldn't summon the courage to tell him they were engaged and now face much graver challenges. Along the way they are joined by a single mother and her wise-beyond-his-years son, an anxious stowaway and a despondent fellow passenger who boarded the ship not sure he wanted to live but now knows he doesn't want to die...\n\n*CODEC Informations*\n\nGeneral\nComplete name                    : Poseidon 2006 720p BRRip H.264 AAC-TheFalcon007 (Kingdom-Release).mp4\nFormat                           : MPEG-4\nFormat profile                   : Base Media / Version 2\nCodec ID                         : mp42\nFile size                        : 2.59 GiB\nDuration                         : 1h 38mn\nOverall bit rate                 : 3 776 Kbps\nEncoded date                     : UTC 2010-11-16 16:28:34\nTagged date                      : UTC 2010-11-16 16:28:34\nWriting application              : Yamb 2.1.0.0\nCopyright                        : TheFalcon007\n\nVideo\nID                               : 1\nFormat                           : AVC\nFormat/Info                      : Advanced Video Codec\nFormat profile                   : &lt;a class=&quot;__cf_email__&quot; href=&quot;/cdn-cgi/l/email-protection&quot; data-cfemail=&quot;a8e0c1cfc0e8e49c8699&quot;&gt;[email&amp;#160;protected]&lt;/a&gt;&lt;script cf-hash='f9e31' type=&quot;text/javascript&quot;&gt;\n/* &lt;![CDATA[ */!function(){try{var t=&quot;currentScript&quot;in document?document.currentScript:function(){for(var t=document.getElementsByTagName(&quot;script&quot;),e=t.length;e--;)if(t[e].getAttribute(&quot;cf-hash&quot;))return t[e]}();if(t&amp;&amp;t.previousSibling){var e,r,n,i,c=t.previousSibling,a=c.getAttribute(&quot;data-cfemail&quot;);if(a){for(e=&quot;&quot;,r=parseInt(a.substr(0,2),16),n=2;a.length-n;n+=2)i=parseInt(a.substr(n,2),16)^r,e+=String.fromCharCode(i);e=document.createTextNode(e),c.parentNode.replaceChild(e,c)}}}catch(u){}}();/* ]]&gt; */&lt;/script&gt;\nFormat settings, CABAC           : Yes\nFormat settings, ReFrames        : 12 frames\nCodec ID                         : avc1\nCodec ID/Info                    : Advanced Video Coding\nDuration                         : 1h 38mn\nBit rate mode                    : Variable\nBit rate                         : 3 200 Kbps\nMaximum bit rate                 : 14.7 Mbps\nWidth                            : 1 280 pixels\nHeight                           : 530 pixels\nDisplay aspect ratio             : 2.40:1\nFrame rate mode                  : Constant\nFrame rate                       : 23.976 fps\nColor space                      : YUV\nChroma subsampling               : 4:2:0\nBit depth                        : 8 bits\nScan type                        : Progressive\nBits/(Pixel*Frame)               : 0.197\nStream size                      : 2.19 GiB (85%)\nWriting library                  : x264 core 98 r1649 c54c47d\nEncoding settings                : X\nEncoded date                     : UTC 2010-11-16 04:14:14\nTagged date                      : UTC 2010-11-16 16:30:23\n\nAudio #1\nID                               : 2\nFormat                           : AAC\nFormat/Info                      : Advanced Audio Codec\nFormat version                   : Version 4\nFormat profile                   : LC\nFormat settings, SBR             : No\nCodec ID                         : 40\nDuration                         : 1h 38mn\nBit rate mode                    : Variable\nBit rate                         : 444 Kbps\nMaximum bit rate                 : 535 Kbps\nChannel(s)                       : 6 channels\nChannel positions                : Front: L C R, Side: L R, LFE\nSampling rate                    : 48.0 KHz\nStream size                      : 312 MiB (12%)\nEncoded date                     : UTC 2010-11-16 16:29:53\nTagged date                      : UTC 2010-11-16 16:30:23\n\nAudio #2\nID                               : 3\nFormat                           : AAC\nFormat/Info                      : Advanced Audio Codec\nFormat version                   : Version 4\nFormat profile                   : LC\nFormat settings, SBR             : No\nCodec ID                         : 40\nDuration                         : 1h 38mn\nBit rate mode                    : Variable\nBit rate                         : 128 Kbps\nMaximum bit rate                 : 171 Kbps\nChannel(s)                       : 2 channels\nChannel positions                : Front: L R\nSampling rate                    : 48.0 KHz\nStream size                      : 89.9 MiB (3%)\nEncoded date                     : UTC 2010-11-16 16:30:21\nTagged date                      : UTC 2010-11-16 16:30:23\n\nTorrent HASH: 9DCA643B F84AC86D 9C23A116 94E59142 745E59A2\n\nCompatible with PS3 and XBox360!\n\nNOTE: Glad to see ya back around KB. Can't wait for ya to get back in action. Continuing the legacy of great quality, KiNGDOM releases... TAKE IT or LEAVE IT.\nI am looking for some new sources cams,direct audio,dvd or vhs screeners, Dedicated Servers, TV Cappers, syncers or any thing else you can provide Contact us @ &lt;a class=&quot;__cf_email__&quot; href=&quot;/cdn-cgi/l/email-protection&quot; data-cfemail=&quot;bfd4d6d1d8dbd0d2ffd7caccd791ded6&quot;&gt;[email&amp;#160;protected]&lt;/a&gt;&lt;script cf-hash='f9e31' type=&quot;text/javascript&quot;&gt;\n/* &lt;![CDATA[ */!function(){try{var t=&quot;currentScript&quot;in document?document.currentScript:function(){for(var t=document.getElementsByTagName(&quot;script&quot;),e=t.length;e--;)if(t[e].getAttribute(&quot;cf-hash&quot;))return t[e]}();if(t&amp;&amp;t.previousSibling){var e,r,n,i,c=t.previousSibling,a=c.getAttribute(&quot;data-cfemail&quot;);if(a){for(e=&quot;&quot;,r=parseInt(a.substr(0,2),16),n=2;a.length-n;n+=2)i=parseInt(a.substr(n,2),16)^r,e+=String.fromCharCode(i);e=document.createTextNode(e),c.parentNode.replaceChild(e,c)}}}catch(u){}}();/* ]]&gt; */&lt;/script&gt;\nGreets: KingBen, tiato, DiNGiE, Mazza, Richie, SecretMyth, BeLLBoY, IceBane, Deaftone and all of Kingdom &amp; UKB, STG, IMAGiNE, The GRiM, KK, paulx1, HDLiTE, Ho's, Wrath, MnM-RG, ReleaseLounge RG and all others I Respect, you know who y'all are R.I.P. SecretMyth.\nThanks to SceneUnderground!\nThanks SaM for help!","torrent":{"xt":"urn:btih:9dca643bf84ac86d9c23a11694e59142745e59a2","amp;dn":"Poseidon+2006+720p+BRRip+H.264+AAC-TheFalcon007","amp;tr":["udp%3A%2F%2Ftracker.openbittorrent.com%3A80","udp%3A%2F%2Fopen.demonii.com%3A1337","udp%3A%2F%2Ftracker.coppersurfer.tk%3A6969","udp%3A%2F%2Fexodus.desync.com%3A6969"],"infoHash":"9dca643bf84ac86d9c23a11694e59142745e59a2","infoHashBuffer":{"type":"Buffer","data":[157,202,100,59,248,74,200,109,156,35,161,22,148,229,145,66,116,94,89,162]},"announce":[],"urlList":[]}}